<?xml version="1.0" encoding="UTF-8" standalone="no"?> <svg xmlns="http://www.w3.org/2000/svg" viewBox="0 0 512 512"><defs><style>.cls-1{font-size:64px;font-family:DBHelvethaicaX-MedCond, DBHelvethaicaX MedCond;}.cls-2{letter-spacing:0em;}</style></defs><g id="text"><text class="cls-1" transform="translate(110.56 565.44)">ICE CRE<tspan class="cls-2" x="200.51" y="0">A</tspan><tspan x="239.42" y="0">M</tspan></text></g><g id="solid"><path d="M480.21,385.45V344.08a328,328,0,0,0-328-328h-32v16h24V272.05h-120a8,8,0,0,0-8,8V448a40,40,0,0,0,40,40h256a32,32,0,0,0,32-32V432a8,8,0,0,0-8-8h-56v-144a8,8,0,0,0-8-8H160.24V49.61A79.55,79.55,0,0,0,190.9,69.26a79.6,79.6,0,0,0,59.8-2.58l16.49-7.5,4.31,14.36a80.15,80.15,0,0,0,76.62,57,78.86,78.86,0,0,0,8-.4L367.37,129l-1.26,13.92a79.84,79.84,0,0,0,64,85.68l5.43,1.09-6.84,11.39a79.92,79.92,0,0,0,24.22,107.72l11.32,7.54v29.09a24.16,24.16,0,0,0-14.63,14.62h-9.37v-16a8,8,0,0,0-8-8h-32v16h24v16a8,8,0,0,0,8,8h17.37a24.15,24.15,0,0,0,14.63,14.63v65.37h16V430.7a24,24,0,0,0,0-45.25ZM64.21,424h0Zm112-71.95a24,24,0,0,1-16,22.62v5.38a12,12,0,1,0,24,0v-4h16v4a28,28,0,1,1-56,0V374.7a24,24,0,0,1,0-45.24V320h16v9.42A24,24,0,0,1,176.23,352.08Zm-144-64h112v16h-88a8,8,0,0,0-8,8V424h-16Zm112,160a24,24,0,0,1-24,24h-64a24,24,0,0,1-24-24v-8h112Zm184-8v16a16,16,0,0,1-16,16h-160a39.74,39.74,0,0,0,8-24v-8h168Zm-64-152V424h-16V312a8,8,0,0,0-8-8h-80v-16ZM244.08,52.11a63.74,63.74,0,0,1-77.54-19.67,311.58,311.58,0,0,1,85.68,16Zm110.41,62.12a64.09,64.09,0,0,1-67.66-45.29l-2.27-7.55a311.44,311.44,0,0,1,77.76,52.06Zm78.73,98.7A63.88,63.88,0,0,1,382,144.39l.93-10.28a311.33,311.33,0,0,1,52.72,79.32Zm28.55,122.58a63.92,63.92,0,0,1-19.38-86.17l4.65-7.75a311.94,311.94,0,0,1,17.08,95.48Zm10.44,80.56a8,8,0,1,1,8-8A8,8,0,0,1,472.21,416.07Z"/><circle cx="152" cy="352" r="8"/></g></svg>